HIERARCHY
ROOT Hips
{
	OFFSET -0.001795 -0.223333 0.028219
	CHANNELS 6 Xposition Yposition Zposition Zrotation Yrotation Xrotation 
	JOINT LeftUpLeg
	{
		OFFSET 0.069520 -0.091406 -0.006815
		CHANNELS 3 Zrotation Yrotation Xrotation
		JOINT LeftLeg
		{
			OFFSET 0.034277 -0.375199 -0.004496
			CHANNELS 3 Zrotation Yrotation Xrotation
			JOINT LeftFoot
			{
				OFFSET -0.013596 -0.397961 -0.043693
				CHANNELS 3 Zrotation Yrotation Xrotation
				JOINT LeftToe
				{
					OFFSET 0.026358 -0.055791 0.119288
					CHANNELS 3 Zrotation Yrotation Xrotation
					End Site
					{
						OFFSET 0.000000 0.000000 0.000000
					}
				}
			}
		}
	}
	JOINT RightUpLeg
	{
		OFFSET -0.067670 -0.090522 -0.004320
		CHANNELS 3 Zrotation Yrotation Xrotation
		JOINT RightLeg
		{
			OFFSET -0.038290 -0.382569 -0.008850
			CHANNELS 3 Zrotation Yrotation Xrotation
			JOINT RightFoot
			{
				OFFSET 0.015774 -0.398415 -0.042312
				CHANNELS 3 Zrotation Yrotation Xrotation
				JOINT RightToe
				{
					OFFSET -0.025372 -0.048144 0.123348
					CHANNELS 3 Zrotation Yrotation Xrotation
					End Site
					{
						OFFSET 0.000000 0.000000 0.000000
					}
				}
			}
		}
	}
	JOINT Spine
	{
		OFFSET -0.002533 0.108963 -0.026696
		CHANNELS 3 Zrotation Yrotation Xrotation
		JOINT Spine1
		{
			OFFSET 0.005487 0.135180 0.001092
			CHANNELS 3 Zrotation Yrotation Xrotation
			JOINT Spine2
			{
				OFFSET 0.001457 0.052922 0.025425
				CHANNELS 3 Zrotation Yrotation Xrotation
				JOINT Neck
				{
					OFFSET -0.002778 0.213870 -0.042857
					CHANNELS 3 Zrotation Yrotation Xrotation
					JOINT Head
					{
						OFFSET 0.005152 0.064970 0.051349
						CHANNELS 3 Zrotation Yrotation Xrotation
						End Site
						{
							OFFSET 0.000000 0.000000 0.000000
						}
					}
				}
				JOINT LeftShoulder
				{
					OFFSET 0.078845 0.121749 -0.034090
					CHANNELS 3 Zrotation Yrotation Xrotation
					JOINT LeftArm
					{
						OFFSET 0.090977 0.030469 -0.008868
						CHANNELS 3 Zrotation Yrotation Xrotation
						JOINT LeftForeArm
						{
							OFFSET 0.259612 -0.012772 -0.027456
							CHANNELS 3 Zrotation Yrotation Xrotation
							JOINT LeftHand
							{
								OFFSET 0.249234 0.008986 -0.001171
								CHANNELS 3 Zrotation Yrotation Xrotation
								End Site
								{
									OFFSET 0.000000 0.000000 0.000000
								}
							}
						}
					}
				}
				JOINT RightShoulder
				{
					OFFSET -0.081759 0.118833 -0.038615
					CHANNELS 3 Zrotation Yrotation Xrotation
					JOINT RightArm
					{
						OFFSET -0.096012 0.032551 -0.009143
						CHANNELS 3 Zrotation Yrotation Xrotation
						JOINT RightForeArm
						{
							OFFSET -0.253742 -0.013329 -0.021401
							CHANNELS 3 Zrotation Yrotation Xrotation
							JOINT RightHand
							{
								OFFSET -0.255298 0.007772 -0.005559
								CHANNELS 3 Zrotation Yrotation Xrotation
								End Site
								{
									OFFSET 0.000000 0.000000 0.000000
								}
							}
						}
					}
				}
			}
		}
	}
}
MOTION
Frames: 15
Frame Time: 0.050000
0.001474 0.956889 -0.031417 0.141423 21.256083 5.498555 2.824808 -0.339101 -2.922759 0.593217 0.128603 -6.764229 -6.922859 -3.946449 12.193278 0.000000 0.000000 0.000000 -1.010271 0.167641 -1.731997 -2.195261 0.142307 -3.002912 -4.174471 -10.144142 13.091089 0.000000 0.000000 0.000000 -3.675741 0.028040 1.955134 6.598547 -0.657771 -23.768425 2.862156 3.031798 30.158412 0.191188 4.376824 -28.808856 0.000000 0.000000 0.000000 -7.769889 -1.814450 -1.654227 -58.559560 -4.491917 -8.383869 -16.949703 -36.553490 5.608204 0.000000 0.000000 0.000000 -0.456681 14.033763 5.238333 68.264805 9.344618 0.030851 11.378342 43.721697 8.271918 0.000000 0.000000 0.000000 
0.002202 0.956865 -0.029896 -0.010625 21.037906 5.109606 2.988720 -0.308073 -2.291341 0.481064 0.130218 -6.700264 -6.748739 -4.038088 11.694034 0.000000 0.000000 0.000000 -0.918836 0.127095 -1.290693 -2.072422 0.106967 -3.358923 -3.865682 -9.584326 13.132433 0.000000 0.000000 0.000000 -3.805112 0.028634 1.824846 6.688954 -0.667820 -24.297258 2.100605 1.854695 30.318345 0.419300 4.022356 -28.256285 0.000000 0.000000 0.000000 -7.997102 -0.926967 -1.885018 -59.151916 -3.963294 -8.712526 -16.161316 -34.499738 5.255999 0.000000 0.000000 0.000000 -0.087836 12.427554 4.699856 68.345272 6.158816 -2.259086 7.661875 40.478844 6.047080 0.000000 0.000000 0.000000 
0.002506 0.956433 -0.028263 -0.206745 20.680364 4.829845 3.274368 -0.288189 -1.675398 0.280221 0.137464 -7.122784 -6.194885 -2.996687 11.899717 0.000000 0.000000 0.000000 -0.633565 0.093240 -0.893006 -2.284955 0.111159 -3.631114 -3.782740 -9.479358 13.450699 0.000000 0.000000 0.000000 -3.904022 0.031798 1.236598 6.671643 -0.661649 -24.553876 1.722116 0.946797 30.697783 0.385171 3.847557 -27.920042 0.000000 0.000000 0.000000 -8.284332 0.202846 -2.259715 -59.578699 -3.323914 -9.093706 -15.665312 -31.807228 4.866180 0.000000 0.000000 0.000000 -0.202763 10.620094 3.956704 68.019192 3.830043 -3.895440 5.999026 37.600200 4.884673 0.000000 0.000000 0.000000 
0.002649 0.955793 -0.026694 -0.466760 19.891739 4.487087 3.415564 -0.256068 -0.972757 0.234715 0.143989 -7.222432 -5.843871 -2.763386 11.524253 0.000000 0.000000 0.000000 -0.597856 0.062863 -0.585672 -2.108611 0.072130 -3.914111 -3.118831 -8.306702 13.204813 0.000000 0.000000 0.000000 -3.892692 0.031125 1.026239 6.728760 -0.671865 -25.091440 1.184609 0.358519 31.045410 0.507865 3.567916 -27.245578 0.000000 0.000000 0.000000 -8.539837 1.033707 -2.508113 -59.741163 -2.116678 -9.692082 -15.682270 -30.469998 4.798503 0.000000 0.000000 0.000000 -0.655988 9.489075 3.406885 67.919276 1.803798 -5.270160 5.214631 35.938537 4.306354 0.000000 0.000000 0.000000 
0.002419 0.955322 -0.025489 -0.585711 19.336433 4.257430 3.640036 -0.237847 -0.355528 0.107310 0.151410 -7.662720 -5.453974 -2.261482 11.398385 0.000000 0.000000 0.000000 -0.459398 0.024613 -0.203069 -2.194885 0.054140 -4.288549 -2.988036 -8.141312 13.269802 0.000000 0.000000 0.000000 -3.806093 0.029869 0.812394 6.542287 -0.625961 -25.321093 0.786615 -0.291136 31.234899 0.804438 3.231804 -27.196266 0.000000 0.000000 0.000000 -8.920849 1.696318 -2.732063 -59.875737 -0.723877 -10.357853 -15.496858 -29.487422 4.708046 0.000000 0.000000 0.000000 -0.743034 8.287728 2.935372 67.581371 0.309195 -6.332330 4.977225 35.078016 4.068134 0.000000 0.000000 0.000000 
0.001992 0.955146 -0.024946 -0.844693 18.486915 3.864793 3.918352 -0.227562 0.133772 -0.112625 0.159574 -7.805578 -5.139487 -1.741169 11.559852 0.000000 0.000000 0.000000 -0.428154 -0.000776 0.038321 -1.957562 0.032297 -4.221519 -2.613585 -7.526326 12.919402 0.000000 0.000000 0.000000 -3.564981 0.025320 0.898968 6.432860 -0.602671 -25.564635 0.221842 -0.548860 31.341806 1.178427 2.848864 -26.699768 0.000000 0.000000 0.000000 -8.928992 2.373196 -2.895378 -59.855582 0.422699 -10.900894 -15.418928 -29.110275 4.713607 0.000000 0.000000 0.000000 -0.702750 6.977288 2.457504 67.397310 -0.711939 -7.095145 4.388062 34.588578 3.823024 0.000000 0.000000 0.000000 
0.001262 0.955282 -0.025059 -0.992009 17.613410 3.790428 4.007470 -0.212716 0.472397 -0.169933 0.167323 -7.934413 -4.657812 -1.199990 11.314285 0.000000 0.000000 0.000000 -0.444021 0.020044 -0.149234 -1.854056 0.020789 -4.192580 -2.191503 -6.816413 12.811239 0.000000 0.000000 0.000000 -3.265461 0.023290 0.867499 6.223681 -0.551978 -25.876286 -0.148961 -0.818261 31.513194 1.469465 2.510284 -26.276921 0.000000 0.000000 0.000000 -8.996757 2.956765 -3.040179 -59.776224 1.472226 -11.371415 -15.218871 -29.068680 4.739662 0.000000 0.000000 0.000000 -0.599255 5.561367 1.954175 66.783361 -1.565506 -7.749465 5.024107 34.781728 4.061517 0.000000 0.000000 0.000000 
0.000516 0.955456 -0.025554 -1.161113 16.910254 3.799845 4.118430 -0.206121 0.689120 -0.246008 0.174716 -8.179416 -4.032282 -0.080164 11.597900 0.000000 0.000000 0.000000 -0.327347 0.041456 -0.337594 -1.786901 -0.002348 -4.420003 -1.785089 -6.132428 12.913574 0.000000 0.000000 0.000000 -3.091875 0.023344 0.790934 6.115885 -0.522446 -26.223654 -0.505590 -1.284245 31.545988 1.305470 2.397443 -25.626155 0.000000 0.000000 0.000000 -9.167275 3.930575 -3.369728 -59.441144 2.395113 -11.691759 -15.528925 -28.848190 4.864845 0.000000 0.000000 0.000000 -0.660449 4.531001 1.570392 66.487864 -2.032277 -8.169116 5.467734 34.868670 4.190344 0.000000 0.000000 0.000000 
-0.000192 0.955607 -0.026170 -1.265981 16.045444 3.769151 4.130516 -0.194989 0.784236 -0.331642 0.182228 -8.142233 -3.523077 0.653987 11.606526 0.000000 0.000000 0.000000 -0.327466 0.057358 -0.482504 -1.584297 -0.028732 -4.496661 -1.547130 -5.798203 12.923900 0.000000 0.000000 0.000000 -2.797960 0.019894 0.843943 5.946713 -0.482555 -26.495693 -0.697035 -1.148323 31.484055 1.627344 2.083250 -24.965304 0.000000 0.000000 0.000000 -9.118905 4.503184 -3.546154 -58.877459 3.049063 -11.849806 -15.841205 -28.938046 4.992049 0.000000 0.000000 0.000000 -0.296744 3.367554 1.190913 65.748582 -2.726529 -8.619187 6.331441 35.422373 4.554280 0.000000 0.000000 0.000000 
-0.000610 0.955616 -0.026791 -1.415344 15.210622 3.758729 4.035826 -0.177966 0.852544 -0.206304 0.188338 -8.129686 -3.000732 1.342091 11.483347 0.000000 0.000000 0.000000 -0.450766 0.073692 -0.637339 -1.276056 -0.068696 -4.656527 -1.232092 -5.321263 12.974425 0.000000 0.000000 0.000000 -2.452192 0.016662 0.775427 5.733775 -0.436712 -26.637297 -0.868960 -1.084156 31.426500 1.577107 1.981868 -24.346348 0.000000 0.000000 0.000000 -9.450429 4.719438 -3.648556 -58.425873 3.440463 -11.876081 -15.929304 -29.233324 5.109262 0.000000 0.000000 0.000000 0.255526 2.488698 0.926180 65.113400 -3.207853 -8.987450 7.000798 35.919115 4.853076 0.000000 0.000000 0.000000 
-0.000823 0.955720 -0.027426 -1.374993 14.626385 3.759339 3.882912 -0.161202 0.873338 -0.137650 0.190789 -7.954036 -2.799665 1.586362 11.453796 0.000000 0.000000 0.000000 -0.614485 0.084178 -0.742660 -1.182865 -0.075722 -4.607113 -1.068909 -5.070084 12.815229 0.000000 0.000000 0.000000 -2.189438 0.014028 0.711668 5.463441 -0.372750 -26.855653 -0.927332 -0.765256 31.367374 1.867058 1.754373 -23.831650 0.000000 0.000000 0.000000 -9.467161 4.943901 -3.742010 -58.078318 3.450622 -11.782389 -15.851598 -29.382483 5.115583 0.000000 0.000000 0.000000 0.725816 1.521719 0.608235 64.390488 -3.808003 -9.293030 7.956663 36.510587 5.288951 0.000000 0.000000 0.000000 
-0.000823 0.955752 -0.028117 -1.296737 14.110855 3.662112 3.608963 -0.127764 1.104130 -0.057097 0.194428 -7.989880 -2.305449 2.304858 11.399288 0.000000 0.000000 0.000000 -0.594837 0.066372 -0.566079 -1.223558 -0.079695 -4.717178 -0.921591 -4.833369 12.627288 0.000000 0.000000 0.000000 -1.946182 0.010713 0.659483 5.037747 -0.274922 -27.058170 -0.893942 -0.632283 31.530705 1.820928 1.718956 -23.464366 0.000000 0.000000 0.000000 -9.550630 5.242414 -3.863037 -57.786637 3.642979 -11.802123 -15.817605 -29.726667 5.187781 0.000000 0.000000 0.000000 1.048745 0.910827 0.401916 63.850342 -3.908068 -9.375431 8.519175 36.924384 5.557399 0.000000 0.000000 0.000000 
-0.000720 0.955445 -0.028913 -1.297342 13.678629 3.730783 3.499971 -0.120172 1.044800 -0.062148 0.195587 -7.834820 -2.195816 2.402577 11.338119 0.000000 0.000000 0.000000 -0.655845 0.085732 -0.752407 -1.214008 -0.069527 -4.504662 -0.892584 -4.782145 12.295301 0.000000 0.000000 0.000000 -1.757777 0.010397 0.556403 5.073320 -0.285442 -27.104372 -0.916573 -0.458369 31.435955 1.734632 1.749244 -23.405090 0.000000 0.000000 0.000000 -9.734659 5.147941 -3.847270 -57.543400 3.656119 -11.722273 -16.117974 -29.884971 5.303558 0.000000 0.000000 0.000000 1.081026 0.922506 0.407163 63.472076 -4.033419 -9.428414 8.598125 36.999823 5.579695 0.000000 0.000000 0.000000 
-0.000614 0.955259 -0.029768 -1.255328 13.175889 3.894976 3.351889 -0.111917 0.958404 -0.026318 0.198567 -7.837108 -1.799865 2.875175 11.103883 0.000000 0.000000 0.000000 -0.787607 0.097465 -0.862136 -1.209235 -0.074486 -4.559715 -0.680139 -4.377109 11.967019 0.000000 0.000000 0.000000 -1.562353 0.012222 0.379745 4.956753 -0.264336 -27.077178 -0.807403 -0.403087 31.347017 1.631230 1.785924 -23.626990 0.000000 0.000000 0.000000 -10.021125 5.127007 -3.864313 -57.377664 3.843568 -11.730299 -16.043972 -30.181303 5.363898 0.000000 0.000000 0.000000 1.198018 1.010529 0.446833 63.043338 -3.933018 -9.393850 8.344249 36.936623 5.450138 0.000000 0.000000 0.000000 
-0.000507 0.954945 -0.030527 -1.219356 12.693753 4.041814 3.304811 -0.106701 0.946561 -0.145231 0.204960 -7.941053 -1.779474 2.813772 11.025701 0.000000 0.000000 0.000000 -0.907847 0.130083 -1.189109 -1.079003 -0.067001 -4.194505 -0.623101 -4.254308 11.568695 0.000000 0.000000 0.000000 -1.431077 0.015812 0.174846 5.084725 -0.301649 -26.945084 -0.939615 -0.081768 31.199900 1.721923 1.714012 -23.403965 0.000000 0.000000 0.000000 -10.233990 5.125706 -3.911904 -57.033005 4.072651 -11.721936 -15.949513 -30.512318 5.390745 0.000000 0.000000 0.000000 1.527569 1.197692 0.544916 62.472451 -3.942145 -9.361776 7.942475 36.768025 5.258818 0.000000 0.000000 0.000000 
